<?xml version="1.0" encoding="UTF-8"?>
<svg version="1.1" xmlns="http://www.w3.org/2000/svg" width="1080" height="1080">
<path d="M0 0 C356.4 0 712.8 0 1080 0 C1080 356.4 1080 712.8 1080 1080 C723.6 1080 367.2 1080 0 1080 C0 723.6 0 367.2 0 0 Z " fill="#FEFEFE" transform="translate(0,0)"/>
<path d="M0 0 C5.76951969 3.38990387 10.62832967 8.27345027 15.3125 13 C15.96057617 13.65226563 16.60865234 14.30453125 17.27636719 14.9765625 C22.88878033 20.71923906 27.90283208 26.7816002 32.68066406 33.22753906 C34.0367467 35.04936733 35.41872332 36.84926661 36.8046875 38.6484375 C56.94087491 65.07501138 64.41277491 90.91166541 64.20581055 123.92651367 C64.18754797 126.92961177 64.18530186 129.93239889 64.18554688 132.93554688 C64.09017924 188.62451993 46.94902972 237.47717863 23.62646484 287.42358398 C10.49856379 315.57243035 -2.87805228 348.47681326 7 380 C15.55140322 378.86578247 20.80136373 371.49125693 25.875 365.0625 C31.69815265 357.34051781 36.94367025 349.23896737 42 341 C42.44504883 340.27506348 42.89009766 339.55012695 43.34863281 338.80322266 C50.28191221 327.36758525 56.25300785 315.5163422 62.13726807 303.52075195 C69.46811325 288.59082907 76.93766279 274.32187242 87 261 C87.43489746 260.42378906 87.86979492 259.84757812 88.31787109 259.25390625 C90.76448874 256.0632594 93.33544586 253.00967734 96 250 C96.66644531 249.22527344 97.33289063 248.45054687 98.01953125 247.65234375 C107.22982266 237.14338416 117.20135216 226.88638728 128 218 C129.14585204 217.0286679 130.29168313 216.05731109 131.4375 215.0859375 C151.15228258 198.53933775 172.02337771 186.52915852 197 180 C198.36898437 179.57460938 198.36898437 179.57460938 199.765625 179.140625 C224.34712389 171.56519453 253.43259019 171.29738416 279 172 C279.61646587 201.21732088 279.61646587 201.21732088 276 213 C275.6596875 214.2271875 275.319375 215.454375 274.96875 216.71875 C266.45005406 246.55087458 251.07598789 273.32907249 230 296 C229.45988281 296.59425781 228.91976562 297.18851563 228.36328125 297.80078125 C191.55779526 336.64586596 132.21749419 355.00390684 82.09375 367.76953125 C60.18938436 373.38053285 39.50842755 381.25087435 22 396 C21.24074219 396.56847656 20.48148438 397.13695312 19.69921875 397.72265625 C11.45111855 404.25182464 6.41025788 413.57895349 5 424 C4.91288794 425.92041009 4.86944306 427.8432415 4.8671875 429.765625 C4.86525391 431.34730469 4.86525391 431.34730469 4.86328125 432.9609375 C4.86714844 434.04632812 4.87101562 435.13171875 4.875 436.25 C4.87113281 437.35085938 4.86726563 438.45171875 4.86328125 439.5859375 C4.86457031 440.63523437 4.86585938 441.68453125 4.8671875 442.765625 C4.86831543 443.72243164 4.86944336 444.67923828 4.87060547 445.66503906 C4.846316 448.0234976 4.846316 448.0234976 6 450 C11.35454496 449.47490914 15.70810997 448.10156502 20.5625 445.75 C21.28501953 445.40428955 22.00753906 445.0585791 22.75195312 444.70239258 C38.08018857 437.17894537 52.47894908 427.82901714 66.74072266 418.48046875 C91.78241548 402.07104307 117.70136048 385.5246051 147 378 C148.08571289 377.70585205 148.08571289 377.70585205 149.19335938 377.40576172 C162.45334199 373.9494619 175.69362037 373.60469042 189.3125 373.5625 C190.1590918 373.5563266 191.00568359 373.5501532 191.87792969 373.54379272 C227.27713201 373.37792325 262.15684681 386.81016238 288.21484375 411.125 C290.65001277 413.68272676 291.90943384 415.59656893 292.6875 419.0625 C291.59134387 425.34048513 287.40523463 428.60729805 283 433 C282.07149093 433.9831079 281.14575843 434.96884473 280.22265625 435.95703125 C250.20775761 467.64055822 204.28548296 480.71404521 161.7734375 482.26171875 C133.91469522 482.92151469 107.82037946 477.6391139 81.08303833 470.5642395 C49.46443797 462.04178739 49.46443797 462.04178739 18 467 C11.03918858 471.12492529 9.42586622 477.43057097 7.51579285 484.89131165 C6.1036679 490.85449694 5.404981 496.73497542 4.94140625 502.83984375 C4.85854874 503.90750473 4.77569122 504.97516571 4.69032288 506.07518005 C3.63253496 520.77213649 3.34628197 535.50349924 2.99383545 550.23059082 C2.90007832 554.11150639 2.80075625 557.9922771 2.70117188 561.87304688 C2.6719461 563.01424012 2.6719461 563.01424012 2.6421299 564.17848778 C2.47204386 570.78808821 2.29331632 577.39743286 2.10906982 584.00665283 C2.03902667 586.57112601 1.97251932 589.13569958 1.91046143 591.70037842 C1.82952038 594.97656079 1.73178836 598.25178789 1.62890625 601.52734375 C1.60996811 602.44375137 1.59102997 603.360159 1.57151794 604.30433655 C1.33314527 611.03033585 0.96143943 620.03856057 -4 625 C-6.4375 625 -6.4375 625 -9 624 C-13.50106356 617.40915694 -13.1431268 608.99821103 -13.37304688 601.27441406 C-13.41474754 600.02339401 -13.41474754 600.02339401 -13.45729065 598.74710083 C-13.54790154 596.00337606 -13.63333135 593.25951591 -13.71875 590.515625 C-13.78185236 588.57630341 -13.84529465 586.63699285 -13.90905762 584.69769287 C-14.07627704 579.58595607 -14.23917126 574.47409061 -14.40106201 569.36218262 C-14.56319287 564.26221194 -14.72890337 559.16235811 -14.89453125 554.0625 C-14.95941091 552.06231704 -15.02428622 550.06213393 -15.0891571 548.06195068 C-15.12095251 547.08203911 -15.15274792 546.10212753 -15.18550682 545.09252167 C-15.28077956 542.15512918 -15.37591569 539.2177323 -15.47102356 536.28033447 C-15.61970147 531.68987151 -15.76882358 527.0994232 -15.91833878 522.50898743 C-15.97119023 520.88516116 -16.02392948 519.26133123 -16.07653427 517.63749695 C-16.22796137 512.96652229 -16.38396671 508.29572441 -16.54296875 503.625 C-16.5780957 502.53624573 -16.61322266 501.44749146 -16.64941406 500.32574463 C-16.64108377 484.20810148 -16.64108377 484.20810148 -23 470 C-35.75107917 461.05325515 -55.70006361 464.14420937 -70.13378906 466.65356445 C-72.42756684 467.08018378 -74.71401278 467.53352184 -77 468 C-77.77214844 468.1551709 -78.54429687 468.3103418 -79.33984375 468.47021484 C-87.06383861 470.04617968 -94.68084056 471.85166413 -102.25 474.0625 C-134.15802862 483.35539571 -170.31888973 485.69975949 -203 479 C-203.85271484 478.83371094 -204.70542969 478.66742187 -205.58398438 478.49609375 C-236.4247422 472.35976021 -264.67483353 457.71862949 -289 438 C-289.53359131 437.56864746 -290.06718262 437.13729492 -290.61694336 436.69287109 C-295.54351857 432.66142396 -298.86739388 428.98958056 -300.125 422.625 C-300.45009489 417.89130121 -298.8873901 415.46413473 -295.84375 411.95703125 C-295.2353125 411.31121094 -294.626875 410.66539062 -294 410 C-293.4534375 409.36449219 -292.906875 408.72898437 -292.34375 408.07421875 C-278.59288437 393.02667062 -258.22568296 384.52849012 -238.89697266 379.49511719 C-237.19053011 379.04972909 -235.4911963 378.57731443 -233.79296875 378.1015625 C-193.89580226 367.31277049 -150.89101994 374.91075381 -114.88232422 394.00585938 C-113.06692174 394.9646556 -111.24087064 395.89897097 -109.41015625 396.828125 C-94.2114365 404.62648611 -79.93277017 414.04411797 -65.6875 423.4375 C-44.56669363 439.62900339 -44.56669363 439.62900339 -21.125 447.6875 C-20.073125 447.3471875 -20.073125 447.3471875 -19 447 C-15.96017842 438.97487103 -15.53413518 429.93579618 -18.5625 421.8125 C-23.1822242 411.9430892 -29.50295467 403.83475008 -37 396 C-37.54011719 395.39671875 -38.08023437 394.7934375 -38.63671875 394.171875 C-42.21731008 390.31169089 -46.27368904 387.12248967 -50.5 384 C-51.01457764 383.60876953 -51.52915527 383.21753906 -52.05932617 382.81445312 C-63.41557819 374.67444138 -75.92821247 370.87106927 -89.42666626 368.08428955 C-93.7457512 367.18671782 -98.04867787 366.21795589 -102.3515625 365.24609375 C-103.61722801 364.96058655 -103.61722801 364.96058655 -104.90846252 364.66931152 C-148.7873513 354.62814141 -194.83403019 332.53600193 -229 303 C-229.82757813 302.29488281 -230.65515625 301.58976562 -231.5078125 300.86328125 C-253.48551148 281.6758544 -269.04903152 257.33394778 -279 230 C-279.4333667 228.81204834 -279.4333667 228.81204834 -279.87548828 227.60009766 C-286.14487677 209.65916747 -286.85321092 190.81169191 -288 172 C-278.01153465 171.73189327 -268.05960701 172.42052247 -258.09765625 173.06201172 C-256.13415964 173.18618159 -254.17028053 173.30445958 -252.20605469 173.41650391 C-234.59385469 174.4213063 -216.92132701 176.3416569 -200.1875 182.25 C-199.32842041 182.54519531 -198.46934082 182.84039062 -197.58422852 183.14453125 C-189.34587691 186.06774333 -181.64918808 189.79434988 -174 194 C-172.98035156 194.54140625 -171.96070313 195.0828125 -170.91015625 195.640625 C-142.45293199 211.37804298 -114.81559892 237.57248628 -96 264 C-95.16533296 265.1087122 -94.32802346 266.21543928 -93.48828125 267.3203125 C-86.7040711 276.36549414 -81.31531064 286.04048127 -76 296 C-75.29253337 297.30645929 -74.58424107 298.61247191 -73.875 299.91796875 C-70.88874051 305.43872397 -67.98528021 310.9915526 -65.20825195 316.62060547 C-49.10584161 352.84666029 -49.10584161 352.84666029 -22 380 C-21.01 380 -20.02 380 -19 380 C-16.86225654 371.69980928 -16.69893413 363.66151193 -16.75 355.125 C-16.74226563 353.83980469 -16.73453125 352.55460937 -16.7265625 351.23046875 C-16.74911042 340.12561601 -18.08721976 329.79966022 -21.5625 319.25 C-21.95103149 318.05056763 -21.95103149 318.05056763 -22.34741211 316.8269043 C-27.93723784 299.86248985 -34.64376542 283.32343139 -41.41091919 266.80389404 C-45.9528963 255.70661653 -50.268919 244.55544121 -54.21826172 233.23095703 C-54.91200091 231.25113545 -55.6282202 229.27922292 -56.34765625 227.30859375 C-62.07600481 211.11818094 -65.86419601 194.11812459 -69.3125 177.3125 C-69.45953369 176.60971924 -69.60656738 175.90693848 -69.75805664 175.18286133 C-72.50826102 161.14572819 -73.41005369 147.08565737 -73.375 132.8125 C-73.37478851 132.00839691 -73.37457703 131.20429382 -73.37435913 130.37582397 C-73.33993309 117.19750296 -72.21739934 104.81552344 -69 92 C-68.6673951 90.49520503 -68.33663492 88.99000102 -68.0078125 87.484375 C-63.97468216 70.19057059 -55.6767452 53.16095021 -45 39 C-43.89398438 37.45505859 -43.89398438 37.45505859 -42.765625 35.87890625 C-37.09492113 28.15610935 -30.61055052 21.30243535 -23.875 14.5 C-23.04000977 13.65115234 -22.20501953 12.80230469 -21.34472656 11.92773438 C-7.01559945 -2.2940796 -7.01559945 -2.2940796 0 0 Z " fill="#839A1C" transform="translate(544,228)"/>
</svg>
